<svg width="671" height="128" viewBox="0 0 671 128" fill="none" xmlns="http://www.w3.org/2000/svg">
<g filter="url(#filter0_d_47_21)">
<path d="M628.897 0H42.1035C21.0595 0 4 17.0558 4 38.0952V81.9048C4 102.944 21.0595 120 42.1035 120H628.897C649.941 120 667 102.944 667 81.9048V38.0952C667 17.0558 649.941 0 628.897 0Z" fill="#F9F9FC"/>
</g>
<g filter="url(#filter1_d_47_21)">
<path d="M122 59.5C122 32.1619 99.8381 10 72.5 10C45.1619 10 23 32.1619 23 59.5C23 86.8381 45.1619 109 72.5 109C99.8381 109 122 86.8381 122 59.5Z" fill="#EAE8FE"/>
</g>
<g filter="url(#filter2_d_47_21)">
<path d="M91.3333 32H51.6667C48.55 32 46 34.7 46 37.9998V80.0002C46 83.3 48.55 86 51.6667 86H91.3333C94.45 86 97 83.3 97 80.0002V37.9998C97 34.7 94.45 32 91.3333 32ZM74.4183 44.1809L77.4217 41.0006L81.4167 45.23L85.4117 41.0006L88.415 44.1809L84.42 48.4102L88.415 52.6396L85.4117 55.8198L81.4167 51.6194L77.4217 55.8507L74.4183 52.6704L78.4133 48.4391L74.4183 44.1809ZM55.2083 46.1596H69.375V50.6608H55.2083V46.1596ZM70.0833 70.9995H64.4167V76.9994H60.1667V70.9995H54.5V66.5002H60.1667V60.5005H64.4167V66.5002H70.0833V70.9995ZM88.5 74.7506H74.3333V70.2494H88.5V74.7506ZM88.5 67.2505H74.3333V62.7491H88.5V67.2505Z" fill="#6427FF"/>
</g>
<g filter="url(#filter3_d_47_21)">
<path d="M143.514 17.0583V18.4884C143.514 22.1782 138.934 25.2673 134.181 25.9824L135.132 27.8988C140.547 26.9835 145.616 23.4367 145.616 18.4884V17.0583H143.514ZM143.946 17.0583V18.4884C143.946 23.3795 149.044 26.9835 154.402 27.8988L155.352 25.9824C150.657 25.2673 146.02 22.0924 146.02 18.4884V17.0583H143.946ZM143.514 32.1606V42H145.876V32.1606H143.514ZM133 30.7018V32.6754H156.533V30.7018H133ZM158.115 18.8603V20.8053H173.497V18.8603H158.115ZM165.806 22.121C162.062 22.121 159.556 23.9516 159.556 26.8118C159.556 29.6435 162.062 31.4455 165.806 31.4455C169.494 31.4455 172.028 29.6435 172.028 26.8118C172.028 23.9516 169.494 22.121 165.806 22.121ZM165.806 23.9802C168.14 23.9802 169.753 25.0671 169.753 26.8118C169.753 28.4994 168.14 29.6149 165.806 29.6149C163.415 29.6149 161.831 28.4994 161.831 26.8118C161.831 25.0671 163.415 23.9802 165.806 23.9802ZM175.859 16.143V32.3036H178.25V16.143H175.859ZM177.588 23.2651V25.2387H182.11V23.2651H177.588ZM161.341 33.7052V35.6501H175.859V42H178.25V33.7052H161.341ZM164.596 16V19.9472H166.988V16H164.596ZM183.145 37.6809C185.584 35.7359 187.494 34.1437 188.877 32.9043C190.26 31.6457 191.422 30.3396 192.362 28.9857C193.323 27.6127 193.803 26.2684 193.803 24.9527C193.803 23.7132 193.495 22.7408 192.881 22.0352C192.286 21.3106 191.316 20.9483 189.972 20.9483C188.666 20.9483 187.648 21.3582 186.918 22.1782C186.208 22.9791 185.824 24.0565 185.766 25.4103H183.231C183.308 23.2747 183.961 21.6252 185.19 20.462C186.419 19.2989 188.003 18.7172 189.943 18.7172C191.921 18.7172 193.486 19.2607 194.638 20.3476C195.809 21.4345 196.395 22.9314 196.395 24.8383C196.395 26.421 195.915 27.9655 194.955 29.4719C194.014 30.9593 192.939 32.275 191.729 33.4191C190.519 34.5442 188.973 35.8599 187.091 37.3663H197V39.5401H183.145V37.6809Z" fill="black"/>
</g>
<g filter="url(#filter4_d_47_21)">
<path d="M133.342 73.5769C133.444 70.8327 134.332 68.7173 136.006 67.2308C137.681 65.7442 139.951 65 142.818 65C144.721 65 146.345 65.3327 147.689 66C149.059 66.6673 150.087 67.5769 150.772 68.7308C151.482 69.8846 151.837 71.1788 151.837 72.6154C151.837 74.3077 151.419 75.6923 150.581 76.7692C149.744 77.8211 148.768 78.5384 147.651 78.923V79.0769C149.097 79.5635 150.239 80.3712 151.076 81.5C151.913 82.6289 152.332 84.0769 152.332 85.8461C152.332 87.4365 151.964 88.8461 151.228 90.0769C150.518 91.2827 149.465 92.2307 148.07 92.923C146.7 93.6153 145.063 93.9615 143.161 93.9615C140.116 93.9615 137.681 93.2057 135.854 91.6923C134.053 90.1788 133.101 87.8981 133 84.8461H139.317C139.342 85.975 139.66 86.8711 140.269 87.5384C140.877 88.1788 141.765 88.5 142.932 88.5C143.922 88.5 144.683 88.2173 145.216 87.6538C145.774 87.0634 146.053 86.2942 146.053 85.3462C146.053 84.1154 145.66 83.2308 144.873 82.6923C144.112 82.1289 142.882 81.8462 141.182 81.8462H139.964V76.5H141.182C142.476 76.5 143.516 76.2827 144.302 75.8462C145.114 75.3846 145.52 74.5769 145.52 73.4231C145.52 72.5 145.266 71.7827 144.759 71.2692C144.252 70.7558 143.554 70.5 142.666 70.5C141.702 70.5 140.979 70.7942 140.497 71.3846C140.04 71.975 139.774 72.7057 139.698 73.5769H133.342ZM173.812 71.3846H161.94V76.6923C162.447 76.1289 163.157 75.6673 164.071 75.3077C164.984 74.9481 165.973 74.7693 167.038 74.7693C168.941 74.7693 170.515 75.2058 171.757 76.0769C173.026 76.9481 173.953 78.0769 174.535 79.4615C175.119 80.8461 175.41 82.3462 175.41 83.9615C175.41 86.9615 174.573 89.3462 172.899 91.1154C171.224 92.8596 168.865 93.7307 165.821 93.7307C163.792 93.7307 162.028 93.3846 160.532 92.6923C159.035 91.975 157.88 90.9865 157.069 89.7308C156.257 88.475 155.813 87.025 155.737 85.3846H162.092C162.244 86.1788 162.612 86.8462 163.196 87.3846C163.779 87.8981 164.578 88.1538 165.593 88.1538C166.785 88.1538 167.674 87.7692 168.256 87C168.84 86.2307 169.131 85.2057 169.131 83.923C169.131 82.6673 168.827 81.7057 168.218 81.0384C167.609 80.3711 166.722 80.0385 165.555 80.0385C164.692 80.0385 163.982 80.2558 163.424 80.6923C162.866 81.1019 162.498 81.6538 162.32 82.3461H156.041V65.6154H173.812V71.3846ZM177.1 79.3077C177.1 74.8981 177.937 71.423 179.612 68.8846C181.313 66.3461 184.039 65.0769 187.794 65.0769C191.55 65.0769 194.263 66.3461 195.937 68.8846C197.638 71.423 198.487 74.8981 198.487 79.3077C198.487 83.7692 197.638 87.2692 195.937 89.8077C194.263 92.3461 191.55 93.6154 187.794 93.6154C184.039 93.6154 181.313 92.3461 179.612 89.8077C177.937 87.2692 177.1 83.7692 177.1 79.3077ZM192.094 79.3077C192.094 76.7173 191.816 74.7308 191.257 73.3461C190.699 71.9365 189.544 71.2307 187.794 71.2307C186.043 71.2307 184.89 71.9365 184.331 73.3461C183.773 74.7308 183.493 76.7173 183.493 79.3077C183.493 81.0519 183.596 82.5 183.798 83.6538C184.001 84.7827 184.407 85.7058 185.016 86.4231C185.651 87.1154 186.576 87.4615 187.794 87.4615C189.011 87.4615 189.925 87.1154 190.534 86.4231C191.169 85.7058 191.588 84.7827 191.789 83.6538C191.993 82.5 192.094 81.0519 192.094 79.3077ZM200.023 79.3077C200.023 74.8981 200.86 71.423 202.534 68.8846C204.233 66.3461 206.962 65.0769 210.716 65.0769C214.47 65.0769 217.185 66.3461 218.86 68.8846C220.559 71.423 221.409 74.8981 221.409 79.3077C221.409 83.7692 220.559 87.2692 218.86 89.8077C217.185 92.3461 214.47 93.6154 210.716 93.6154C206.962 93.6154 204.233 92.3461 202.534 89.8077C200.86 87.2692 200.023 83.7692 200.023 79.3077ZM215.016 79.3077C215.016 76.7173 214.737 74.7308 214.179 73.3461C213.622 71.9365 212.467 71.2307 210.716 71.2307C208.965 71.2307 207.811 71.9365 207.253 73.3461C206.695 74.7308 206.416 76.7173 206.416 79.3077C206.416 81.0519 206.517 82.5 206.72 83.6538C206.924 84.7827 207.329 85.7058 207.938 86.4231C208.572 87.1154 209.498 87.4615 210.716 87.4615C211.934 87.4615 212.847 87.1154 213.456 86.4231C214.09 85.7058 214.508 84.7827 214.712 83.6538C214.915 82.5 215.016 81.0519 215.016 79.3077ZM233.258 94C231.304 94 229.553 93.6788 228.006 93.0385C226.459 92.3981 225.215 91.4481 224.277 90.1923C223.364 88.9365 222.882 87.423 222.831 85.6538H229.757C229.858 86.6538 230.2 87.4231 230.784 87.9615C231.368 88.475 232.13 88.7307 233.068 88.7307C234.032 88.7307 234.793 88.5134 235.351 88.0769C235.908 87.6154 236.188 86.9865 236.188 86.1923C236.188 85.525 235.96 84.975 235.503 84.5384C235.071 84.1019 234.527 83.7442 233.867 83.4615C233.233 83.1788 232.32 82.8596 231.127 82.5C229.401 81.9615 227.993 81.4231 226.903 80.8846C225.812 80.3462 224.872 79.5519 224.087 78.5C223.301 77.448 222.907 76.0769 222.907 74.3846C222.907 71.8712 223.807 69.9096 225.609 68.5C227.411 67.0635 229.757 66.3462 232.649 66.3462C235.593 66.3462 237.963 67.0635 239.765 68.5C241.567 69.9096 242.53 71.8846 242.657 74.4231H235.617C235.566 73.5519 235.25 72.8711 234.666 72.3846C234.082 71.8711 233.334 71.6154 232.421 71.6154C231.635 71.6154 230.999 71.8327 230.518 72.2692C230.037 72.6788 229.795 73.2827 229.795 74.0769C229.795 74.9481 230.2 75.6288 231.013 76.1154C231.825 76.6019 233.092 77.1288 234.818 77.6923C236.544 78.2827 237.939 78.8462 239.004 79.3846C240.094 79.9231 241.034 80.7058 241.82 81.7308C242.606 82.7558 243 84.0769 243 85.6923C243 87.2308 242.606 88.6288 241.82 89.8846C241.059 91.1404 239.942 92.1404 238.471 92.8846C237.001 93.6288 235.262 94 233.258 94Z" fill="#6427FF"/>
</g>
<defs>
<filter id="filter0_d_47_21" x="0" y="0" width="671" height="128" filterUnits="userSpaceOnUse" color-interpolation-filters="sRGB">
<feFlood flood-opacity="0" result="BackgroundImageFix"/>
<feColorMatrix in="SourceAlpha" type="matrix" values="0 0 0 0 0 0 0 0 0 0 0 0 0 0 0 0 0 0 127 0" result="hardAlpha"/>
<feOffset dy="4"/>
<feGaussianBlur stdDeviation="2"/>
<feComposite in2="hardAlpha" operator="out"/>
<feColorMatrix type="matrix" values="0 0 0 0 0 0 0 0 0 0 0 0 0 0 0 0 0 0 0.25 0"/>
<feBlend mode="normal" in2="BackgroundImageFix" result="effect1_dropShadow_47_21"/>
<feBlend mode="normal" in="SourceGraphic" in2="effect1_dropShadow_47_21" result="shape"/>
</filter>
<filter id="filter1_d_47_21" x="19" y="10" width="107" height="107" filterUnits="userSpaceOnUse" color-interpolation-filters="sRGB">
<feFlood flood-opacity="0" result="BackgroundImageFix"/>
<feColorMatrix in="SourceAlpha" type="matrix" values="0 0 0 0 0 0 0 0 0 0 0 0 0 0 0 0 0 0 127 0" result="hardAlpha"/>
<feOffset dy="4"/>
<feGaussianBlur stdDeviation="2"/>
<feComposite in2="hardAlpha" operator="out"/>
<feColorMatrix type="matrix" values="0 0 0 0 0 0 0 0 0 0 0 0 0 0 0 0 0 0 0.25 0"/>
<feBlend mode="normal" in2="BackgroundImageFix" result="effect1_dropShadow_47_21"/>
<feBlend mode="normal" in="SourceGraphic" in2="effect1_dropShadow_47_21" result="shape"/>
</filter>
<filter id="filter2_d_47_21" x="42" y="32" width="59" height="62" filterUnits="userSpaceOnUse" color-interpolation-filters="sRGB">
<feFlood flood-opacity="0" result="BackgroundImageFix"/>
<feColorMatrix in="SourceAlpha" type="matrix" values="0 0 0 0 0 0 0 0 0 0 0 0 0 0 0 0 0 0 127 0" result="hardAlpha"/>
<feOffset dy="4"/>
<feGaussianBlur stdDeviation="2"/>
<feComposite in2="hardAlpha" operator="out"/>
<feColorMatrix type="matrix" values="0 0 0 0 0 0 0 0 0 0 0 0 0 0 0 0 0 0 0.25 0"/>
<feBlend mode="normal" in2="BackgroundImageFix" result="effect1_dropShadow_47_21"/>
<feBlend mode="normal" in="SourceGraphic" in2="effect1_dropShadow_47_21" result="shape"/>
</filter>
<filter id="filter3_d_47_21" x="129" y="16" width="72" height="34" filterUnits="userSpaceOnUse" color-interpolation-filters="sRGB">
<feFlood flood-opacity="0" result="BackgroundImageFix"/>
<feColorMatrix in="SourceAlpha" type="matrix" values="0 0 0 0 0 0 0 0 0 0 0 0 0 0 0 0 0 0 127 0" result="hardAlpha"/>
<feOffset dy="4"/>
<feGaussianBlur stdDeviation="2"/>
<feComposite in2="hardAlpha" operator="out"/>
<feColorMatrix type="matrix" values="0 0 0 0 0 0 0 0 0 0 0 0 0 0 0 0 0 0 0.25 0"/>
<feBlend mode="normal" in2="BackgroundImageFix" result="effect1_dropShadow_47_21"/>
<feBlend mode="normal" in="SourceGraphic" in2="effect1_dropShadow_47_21" result="shape"/>
</filter>
<filter id="filter4_d_47_21" x="129" y="65" width="118" height="37" filterUnits="userSpaceOnUse" color-interpolation-filters="sRGB">
<feFlood flood-opacity="0" result="BackgroundImageFix"/>
<feColorMatrix in="SourceAlpha" type="matrix" values="0 0 0 0 0 0 0 0 0 0 0 0 0 0 0 0 0 0 127 0" result="hardAlpha"/>
<feOffset dy="4"/>
<feGaussianBlur stdDeviation="2"/>
<feComposite in2="hardAlpha" operator="out"/>
<feColorMatrix type="matrix" values="0 0 0 0 0 0 0 0 0 0 0 0 0 0 0 0 0 0 0.25 0"/>
<feBlend mode="normal" in2="BackgroundImageFix" result="effect1_dropShadow_47_21"/>
<feBlend mode="normal" in="SourceGraphic" in2="effect1_dropShadow_47_21" result="shape"/>
</filter>
</defs>
</svg>
